<?xml version="1.0" standalone="no"?>
<!DOCTYPE svg PUBLIC "-//W3C//DTD SVG 20010904//EN"
 "http://www.w3.org/TR/2001/REC-SVG-20010904/DTD/svg10.dtd">
<svg version="1.0" xmlns="http://www.w3.org/2000/svg" viewBox="0 0 500.000000 260.000000"
 preserveAspectRatio="xMidYMid meet">

<g transform="translate(0.000000,500.000000) scale(0.100000,-0.100000)"
fill="#8300c7" stroke="none">
<path class="animate__animated animate__fadeOut" d="M2864 4570 c-79 -32 -85 -164 -9 -198 49 -23 94 -15 131 22 86 86 -9
222 -122 176z m97 -49 c16 -16 29 -39 29 -51 0 -30 -53 -80 -85 -80 -32 0 -75
44 -75 77 0 30 51 83 80 83 12 0 35 -13 51 -29z"/>
<path class="animate__animated animate__fadeOut" d="M3300 4280 c-14 -4 -57 -5 -95 -3 -104 8 -159 -27 -187 -118 -20 -68
23 -160 89 -188 16 -7 42 -33 58 -59 62 -95 192 -129 300 -78 28 13 60 34 72
47 60 66 80 185 44 265 -48 106 -176 167 -281 134z m-90 -36 c0 -3 -15 -23
-33 -45 -37 -43 -57 -97 -57 -153 0 -44 -10 -45 -44 -5 -20 23 -26 42 -26 78
0 53 17 84 64 112 29 17 96 27 96 13z m215 -43 c75 -34 116 -108 101 -183 -27
-134 -193 -184 -285 -85 l-23 25 30 16 c69 36 108 126 83 197 -6 17 -8 35 -5
40 9 15 56 10 99 -10z m-126 -46 c13 -46 -1 -94 -38 -129 -53 -51 -86 -16 -62
66 13 42 56 98 76 98 8 0 18 -16 24 -35z"/>
<path class="animate__animated animate__fadeOut" d="M3003 3815 c-247 -69 -326 -377 -142 -555 22 -21 64 -49 95 -61 49
-20 55 -27 65 -63 38 -144 153 -237 294 -238 130 -1 224 57 288 176 32 60 32
203 -1 263 -33 63 -80 111 -133 138 -44 23 -48 28 -58 76 -17 79 -45 133 -91
178 -85 82 -210 116 -317 86z m183 -80 c72 -30 154 -135 154 -198 0 -21 -5
-24 -47 -26 -123 -4 -226 -95 -277 -244 -5 -17 -7 -17 -43 2 -112 57 -168 191
-129 307 47 144 203 216 342 159z m154 -277 c-1 -36 -35 -102 -72 -140 -45
-45 -96 -68 -164 -75 -61 -7 -66 0 -39 63 38 91 151 174 237 174 33 0 38 -3
38 -22z m137 -27 c75 -54 123 -142 123 -226 0 -91 -60 -191 -146 -241 -53 -31
-144 -42 -206 -25 -89 25 -177 115 -194 198 l-6 30 64 5 c78 6 142 33 196 83
44 39 102 143 102 182 0 31 19 29 67 -6z"/>
<!-- <path d="M2362 3509 c-189 -485 -290 -670 -667 -1214 -187 -270 -286 -457
-342 -644 -30 -104 -42 -287 -24 -400 56 -357 313 -664 646 -770 135 -43 226
-55 378 -48 550 24 942 389 1022 952 59 412 -60 848 -355 1295 l-95 144 -7
-114 c-22 -338 -92 -600 -291 -1095 -119 -295 -151 -390 -172 -513 -15 -84
-12 -222 5 -222 4 0 12 18 19 40 23 76 167 346 280 525 63 99 141 231 173 293
55 109 118 280 118 322 0 75 50 -54 86 -220 26 -121 26 -393 0 -505 -82 -357
-311 -590 -648 -659 -110 -23 -285 -21 -384 4 -242 61 -439 244 -518 481 -47
142 -51 317 -10 443 58 174 138 316 369 651 203 295 285 426 367 582 33 63 64
111 68 106 12 -13 38 -150 45 -244 18 -213 -38 -406 -212 -731 -152 -284 -213
-485 -213 -702 0 -133 15 -207 61 -299 27 -53 114 -155 125 -145 2 3 -1 31 -7
64 -7 36 -9 120 -6 214 4 125 10 176 32 260 37 142 93 281 171 425 220 405
284 598 284 849 0 238 -64 457 -228 781 -56 112 -61 118 -70 94z"/> -->
<path class="animate__animated animate__fadeOut" d="M3442 2783 c-71 -35 -112 -127 -92 -204 13 -48 64 -107 107 -125 106
-45 230 27 249 142 12 76 -35 162 -103 190 -44 19 -121 17 -161 -3z m148 -73
c33 -23 54 -77 45 -113 -4 -14 -20 -38 -36 -53 -24 -23 -39 -29 -75 -29 -39 0
-50 5 -75 33 -46 52 -36 136 22 168 35 20 87 17 119 -6z"/>
</g>
</svg>
