<svg xmlns="http://www.w3.org/2000/svg" version="1.0" viewBox="0 0 1403.000000 2104.000000" preserveAspectRatio="xMidYMid meet">
<g transform="translate(0.000000,2104.000000) scale(0.100000,-0.100000)" fill="#8300c7" stroke="none">
<path d="M6930 20513 c-397 -988 -568 -1408 -663 -1628 -550 -1279 -1209 -2501 -2054 -3809 -313 -483 -631 -952 -1258 -1851 -613 -880 -904 -1309 -1173 -1732 -696 -1093 -1151 -2009 -1462 -2943 -177 -530 -272 -1009 -311 -1574 -15 -218 -6 -805 15 -1016 84 -829 304 -1596 666 -2328 852 -1723 2376 -2960 4215 -3420 930 -233 1947 -269 3005 -106 1879 289 3456 1213 4552 2665 786 1040 1299 2337 1487 3754 110 827 106 1768 -10 2710 -229 1857 -867 3558 -2042 5445 -252 404 -540 835 -896 1340 l-166 235 -2 -70 c-28 -882 -45 -1147 -109 -1710 -156 -1369 -509 -2804 -1077 -4380 -213 -590 -398 -1062 -874 -2225 -118 -289 -260 -637 -315 -775 -496 -1239 -726 -2003 -819 -2718 -27 -205 -37 -656 -20 -845 19 -203 90 -572 110 -572 4 0 19 35 35 78 276 751 692 1636 1144 2432 230 405 458 777 970 1585 358 564 546 867 701 1134 593 1014 952 1890 1181 2876 l37 160 17 -40 c10 -22 55 -152 102 -290 216 -634 362 -1242 453 -1880 93 -654 109 -1393 45 -2035 -179 -1804 -963 -3312 -2215 -4265 -888 -676 -1974 -1052 -3243 -1125 -1077 -61 -2098 173 -2946 675 -1076 637 -1885 1695 -2239 2926 -276 958 -264 1941 34 2834 299 895 761 1793 1503 2920 220 335 444 662 947 1385 733 1053 1102 1600 1442 2135 517 815 961 1590 1345 2350 l131 260 19 -65 c10 -36 43 -160 73 -276 363 -1424 302 -2763 -187 -4139 -234 -657 -514 -1242 -1121 -2340 -320 -580 -509 -970 -693 -1433 -389 -977 -613 -1907 -675 -2806 -15 -221 -6 -761 15 -956 99 -876 403 -1576 915 -2104 158 -162 421 -381 429 -357 2 6 -8 61 -22 123 -57 256 -110 622 -138 948 -17 206 -17 932 0 1140 112 1328 482 2590 1159 3945 69 138 140 277 158 310 18 33 138 251 267 485 511 925 778 1455 1010 1999 646 1517 856 2902 667 4391 -125 984 -446 2050 -949 3150 -142 310 -941 1950 -951 1950 -4 0 -102 -237 -219 -527z"/>
</g>
</svg>